<svg xmlns="http://www.w3.org/2000/svg" viewBox="0 0 123.49 21.07"><defs><style>.cls-1{fill:#460126;}</style></defs><g id="Layer_2" data-name="Layer 2"><g id="Layer_1-2" data-name="Layer 1"><path class="cls-1" d="M53.56,7a7.91,7.91,0,0,1,1.7,1c.82.61,1.57,1.3,2.35,1.95a6.46,6.46,0,0,0,5.22,1.56,15.82,15.82,0,0,0,4-1.19A52.78,52.78,0,0,1,74.34,7.7a38.56,38.56,0,0,1,7-1.12c1-.06,2-.07,3-.11l2.27.15a33.22,33.22,0,0,1,4.85.83c2.84.65,5.67,1.31,8.44,2.2.43.14.84.33,1.27.47.08,0,.2,0,.29-.06s-.08-.18-.15-.23A.76.76,0,0,0,101,9.7c-1.39-.43-2.77-.92-4.19-1.28A65.4,65.4,0,0,0,86.51,6.28c-.73-.07-1.47-.07-2.21-.1v0l-.29,0a35.73,35.73,0,0,0-5.17.34A47,47,0,0,0,68.09,9.36a30.36,30.36,0,0,1-4.25,1.54,6.51,6.51,0,0,1-4.71-.41,11.73,11.73,0,0,1-2.29-1.74,11.26,11.26,0,0,0-2.88-2,3.1,3.1,0,0,0-2.35-.19,3.68,3.68,0,0,0-2,1.8A17.86,17.86,0,0,0,48,12.86c0,.05,0,.1-.08.23-.3-1.36-.58-2.63-.84-3.91a11.17,11.17,0,0,0-.93-3A4.33,4.33,0,0,0,41.7,3.64c-.35,0-.69.08-1,.12v.12c-.57.18-1.14.35-1.7.57s-1,.51-1.53.78l-.06-.07A13.94,13.94,0,0,0,33.74,1.3,6.27,6.27,0,0,0,31,.12a12.83,12.83,0,0,0-4.78.27A39.58,39.58,0,0,0,19,2.82C16.31,4,13.61,5.21,10.88,6.39A19.87,19.87,0,0,1,6.77,7.77a5.45,5.45,0,0,1-3.58-.38A5.26,5.26,0,0,1,.69,4.27C.53,3.83.46,3.37.33,2.91a.84.84,0,0,0-.19-.24L0,3S0,3,0,3A7.67,7.67,0,0,0,1.07,5.83,4.88,4.88,0,0,0,5,8.22a8.61,8.61,0,0,0,3.8-.67c2.27-.92,4.51-1.87,6.75-2.85a82.38,82.38,0,0,1,8.34-3.34,17.68,17.68,0,0,1,6.2-1,5.76,5.76,0,0,1,3,.94,13.4,13.4,0,0,1,3.28,3.05c.27.35.5.72.76,1.09L37,5.59a9.36,9.36,0,0,0-3.32,4.47,12.21,12.21,0,0,0-.49,6.34,11.56,11.56,0,0,0,.53,2,1.26,1.26,0,0,0,2,.66,5.3,5.3,0,0,0,1-.92,8.27,8.27,0,0,0,1.37-2.42,11.76,11.76,0,0,0,.19-8.67c-.18-.51-.43-1-.66-1.51l.59-.35a9.21,9.21,0,0,1,2.62-1V4.08L41.32,4a4,4,0,0,1,4,1.5A5.79,5.79,0,0,1,46.38,7.7c.33,1.38.62,2.77.93,4.16.15.67.29,1.34.46,2,0,.08.11.15.17.22.06-.08.13-.15.19-.24s0-.07,0-.11c.33-1.21.63-2.43,1-3.63a6.81,6.81,0,0,1,1.15-2.24A2.69,2.69,0,0,1,53.56,7Zm-15,2.15A11.83,11.83,0,0,1,37,17.28a3.91,3.91,0,0,1-1.44,1.5A1,1,0,0,1,34,18.24a10.34,10.34,0,0,1-.61-2.75,11.51,11.51,0,0,1,.95-6.15,8.91,8.91,0,0,1,2.74-3.4l.26-.18A10.36,10.36,0,0,1,38.53,9.11Z"/><path class="cls-1" d="M91.5,13.82a.86.86,0,0,0-.43-.41,2.42,2.42,0,0,0-1.83,0,4.64,4.64,0,0,0-1.75,1.18,10.82,10.82,0,0,0-1.81,2.86l-.13.26-.08,0,.36-2.27c.11-.67.23-1.33.33-2a.49.49,0,0,0-.38-.55.53.53,0,0,0-.62.25,1.14,1.14,0,0,1-.37.27,4,4,0,0,1-.49.15l-.17,0A9.4,9.4,0,0,1,81.3,14a.93.93,0,0,1-.68-.25L79.79,13a.59.59,0,0,0-.58-.17.39.39,0,0,1-.32-.15.53.53,0,0,0-.57-.24,2.61,2.61,0,0,0-.66.19,3.59,3.59,0,0,0-1.43,1.27,13.47,13.47,0,0,1-1.92,2.14,7.73,7.73,0,0,1-2,1.47c-.6.29-1,.14-1.18-.5a10.11,10.11,0,0,1-.3-1.55c-.08-.58-.1-1.16-.16-1.75a.87.87,0,0,0-1.47-.48,9.2,9.2,0,0,0-1,1.21c-.54.81-1,1.66-1.52,2.49a3.61,3.61,0,0,1-.33.44H66.2a4.48,4.48,0,0,1-.2-.69c-.06-.49-.07-1-.12-1.49a7.76,7.76,0,0,0-.2-1.28,1,1,0,0,0-1.41-.65,2.2,2.2,0,0,0-.79.56,15.22,15.22,0,0,0-1,1.45c-.52.78-1,1.58-1.53,2.38a3.07,3.07,0,0,1-.29.34,3.17,3.17,0,0,1,.05-.88c.16-1,.36-2,.5-2.93a2.85,2.85,0,0,0,0-1.05c-.09-.43-.45-.52-.79-.25a1.29,1.29,0,0,0-.5,1,.77.77,0,0,1-.14.47c-.64.65-1.29,1.27-1.94,1.9a9.83,9.83,0,0,1-2.67,1.94,3.39,3.39,0,0,1-2.1.32,1.16,1.16,0,0,1-1-1.09.52.52,0,0,1,.14-.36c.25-.23.54-.41.78-.64.68-.64,1.37-1.27,2-2a2.25,2.25,0,0,0,.55-2,1.21,1.21,0,0,0-1.79-1,3.37,3.37,0,0,0-1,.68,6.45,6.45,0,0,0-1.85,5.48,2.25,2.25,0,0,0,2.21,2.11,3.75,3.75,0,0,0,2.08-.46,11.83,11.83,0,0,0,3.35-2.61c.44-.46.84-1,1.29-1.48,0,.32-.06.6-.09.89-.07.83-.17,1.66-.2,2.49a2.11,2.11,0,0,0,.19.86.69.69,0,0,0,1.2.12c.09-.12.17-.26.25-.39.73-1.15,1.43-2.32,2.17-3.46a5.9,5.9,0,0,1,.84-1c.26-.25.45-.21.54.15a10.76,10.76,0,0,1,.24,1.38c.08.76.09,1.54.22,2.29a.68.68,0,0,0,1.22.34,4.48,4.48,0,0,0,.57-.73c.56-.89,1.1-1.8,1.67-2.69a5.33,5.33,0,0,1,.67-.82c.21-.22.32-.18.39.1s.11.61.16.91a20.41,20.41,0,0,0,.42,2.23,1.22,1.22,0,0,0,1.83.85,6.42,6.42,0,0,0,1.87-1.22c.26-.22.51-.46.79-.72,0,.12,0,.18,0,.25a3.24,3.24,0,0,0,.36,2.14,1.1,1.1,0,0,0,1,.58,4.59,4.59,0,0,0,2.75-.92,3.49,3.49,0,0,0,1.54-3.6c0-.12,0-.23-.08-.4a2.91,2.91,0,0,0,1.66.28,5.53,5.53,0,0,0,2.36-.56v-.06l.52-.31s0,.08,0,.11l-.39,3.32a6.83,6.83,0,0,0,0,2.3c.08.35.26.51.51.5a.86.86,0,0,0,.88-.57A10,10,0,0,1,87.62,16,3.73,3.73,0,0,1,91,14.39C91.41,14.42,91.62,14.22,91.5,13.82Zm-38.11-1c.2-.2.46-.39.75-.22a.6.6,0,0,1,.21.77,2.75,2.75,0,0,1-.44.89c-.59.66-1.22,1.27-1.84,1.89L52,16.11A5.78,5.78,0,0,1,53.39,12.85Zm26.13,2a5.2,5.2,0,0,1-.94,2.82,2.41,2.41,0,0,1-1.77,1,.8.8,0,0,1-.94-.83,5.9,5.9,0,0,1,1.31-3.5,2.22,2.22,0,0,1,.36-.32,1.17,1.17,0,0,1,1.67.05A.72.72,0,0,1,79.52,14.85Z"/><path class="cls-1" d="M123.49,16c0-.23-.15-.25-.31-.12s-.23.22-.35.34a7.2,7.2,0,0,1-2.61,1.85,3,3,0,0,1-1.86.2,1.24,1.24,0,0,1-.92-1.13c-.09-.49.34-.51.58-.7a6.61,6.61,0,0,1,.55-.37,8,8,0,0,0,2.13-1.93,3.18,3.18,0,0,0,.48-1,1.29,1.29,0,0,0-1.4-1.65,2.59,2.59,0,0,0-1.44.53,5.21,5.21,0,0,0-2.11,3.76,1.67,1.67,0,0,1-.77,1.36,10.58,10.58,0,0,1-2.15,1.27c-1.07.38-1.7,0-1.78-1.14a15.67,15.67,0,0,1,.45-4.92c.22-.87.51-1.73.73-2.6a6.89,6.89,0,0,0,.16-1.28.36.36,0,0,0-.41-.39.91.91,0,0,0-.52.23,2.58,2.58,0,0,0-.68,1.38c-.27,1.36-.51,2.73-.78,4.1a1.71,1.71,0,0,1-.25.66,13.14,13.14,0,0,1-3.31,3.3l-.16.07c.09-.16.15-.27.2-.38a5.11,5.11,0,0,0,.71-2.4,1.41,1.41,0,0,0-2.24-1.31,5.92,5.92,0,0,0-1.72,1.38c-.58.66-1.1,1.35-1.66,2.05.28-1.06.54-2.13.85-3.18s.75-2.26,1.08-3.4a4.61,4.61,0,0,0,.13-1.28.55.55,0,0,0-.29-.44,1.15,1.15,0,0,0-.6.16c-.1,0-.17.18-.22.29a3.23,3.23,0,0,0-.29.66c-.28,1-.54,2-.81,3a5.07,5.07,0,0,1-.31,1.19,14.42,14.42,0,0,1-1.21,1.89A7.19,7.19,0,0,1,98.54,18c-.57.38-1,.21-1.26-.44a1.83,1.83,0,0,1-.06-.25,6.07,6.07,0,0,1,.15-3,.72.72,0,0,0,0-.71,1.77,1.77,0,0,1-.25-.54c-.15-.57-.38-.76-1-.72a3.93,3.93,0,0,0-3,1.7,9.44,9.44,0,0,0-1.65,4.35A1.39,1.39,0,0,0,92.79,20a2,2,0,0,0,1.38-.49,8.07,8.07,0,0,0,1.77-2l.23-.27c.09.38.16.7.25,1a1.3,1.3,0,0,0,1.91.87,5.57,5.57,0,0,0,1.89-1.52c.35-.4.66-.83,1-1.28,0,.09,0,.15,0,.21-.1.77-.23,1.53-.31,2.31-.06.55,0,.58.49.8a1.24,1.24,0,0,0,0,.33,1,1,0,0,0,.1.49,1.11,1.11,0,0,0,1.08.54,4.73,4.73,0,0,0,1.24-.33,20.16,20.16,0,0,0,1.87-1,20.15,20.15,0,0,0,3.46-2.43c.38-.35.73-.75,1.11-1.14a2.8,2.8,0,0,1,0,.29,4.76,4.76,0,0,0,.44,2.52,1.56,1.56,0,0,0,1.74.83,4.67,4.67,0,0,0,1-.33,13.07,13.07,0,0,0,2.62-1.73l.19-.13c0,.1,0,.16.05.23a2.17,2.17,0,0,0,2.3,1.78,6.06,6.06,0,0,0,4.8-2.89A1.2,1.2,0,0,0,123.49,16ZM95,17.48a9.64,9.64,0,0,1-1.2,1.19.69.69,0,0,1-.68.11c-.31-.1-.47-.28-.42-.59A8.72,8.72,0,0,1,93,16.74a8.17,8.17,0,0,1,1.32-2.49,2,2,0,0,1,1-.74c.54-.14.93.17.92.89A6.21,6.21,0,0,1,95,17.48ZM106.17,17a11.89,11.89,0,0,1-1,1.6,3.51,3.51,0,0,1-2.3,1.34.72.72,0,0,1-.72-.16A.59.59,0,0,1,102,19a9.69,9.69,0,0,1,2.72-3.7,3.68,3.68,0,0,1,.91-.55c.49-.21.73-.07.87.44a2.66,2.66,0,0,1,.07.39l0,0A10.78,10.78,0,0,1,106.17,17Zm12.24-3.67a1.67,1.67,0,0,1,1-.65c.4-.06.62.13.57.53a1.35,1.35,0,0,1-.19.53,9.76,9.76,0,0,1-2.37,2.07A4.54,4.54,0,0,1,118.41,13.29Z"/></g></g></svg>