<svg xmlns="http://www.w3.org/2000/svg" viewBox="0 0 84.01 21.07"><defs><style>.cls-1{fill:#460126;}</style></defs><g id="Layer_2" data-name="Layer 2"><g id="Layer_1-2" data-name="Layer 1"><path class="cls-1" d="M84,13A.15.15,0,0,1,84,13a1.28,1.28,0,0,1-.06-.34l0-.07a1.64,1.64,0,0,0-.44-.55,2.23,2.23,0,0,0-.7-.35l-1.22-.38c-.94-.31-1.91-.62-2.9-.87l-1.2-.31a55.75,55.75,0,0,0-9-1.8l-1-.06c-.49-.05-1-.07-1.56-.07a36.24,36.24,0,0,0-5.2.34c-3.51.48-4.8,1.6-5.82,1.85a5,5,0,0,1-3.66-.29A9.51,9.51,0,0,1,49.4,8.66l-.1-.1a12.13,12.13,0,0,0-3.13-2.15A4.28,4.28,0,0,0,43,6.19a4.79,4.79,0,0,0-2.66,2.34l-.21.38a9.84,9.84,0,0,0-.85-2.46,5.48,5.48,0,0,0-5.31-3.16l-.44.09c-.61.11-1.17.3-1.77.43a1,1,0,0,1-.23,0h0l-.83.3-.59.27a15.61,15.61,0,0,0-3.22-3.16C25.86.55,22-.7,19.18.5L14.9,2.37c-1.21.54-2.41,1.07-3.62,1.59A18.11,18.11,0,0,1,7.56,5.22,3.88,3.88,0,0,1,4.94,5a3.77,3.77,0,0,1-1.8-2.29A4.8,4.8,0,0,1,3,2c0-.2-.09-.39-.15-.58a1.42,1.42,0,0,0-.15-.35L2.59,1S2.51,1,2.44.92L2.35.86a1,1,0,0,0-.17-.1h0L1.9.68c-.18,0-.36-.06-.54-.09h0l-.07,0a1.39,1.39,0,0,1-.35,0,2.67,2.67,0,0,1-.46.2c0,.08-.1.17-.16.25a1.34,1.34,0,0,1-.11.14c0,.17-.08.34-.12.51,0,0,0,.19-.07.27a1,1,0,0,0,0,.17A8.43,8.43,0,0,0,1.2,5.31,5.94,5.94,0,0,0,6,8.21a9.38,9.38,0,0,0,4.26-.74c1.94-.78,4.7-2.33,7-3.38,1.85-.83,3.27-1.56,5.2-1.39a4.72,4.72,0,0,1,2.29.68,12.1,12.1,0,0,1,2.87,2.67l0,0a10.39,10.39,0,0,0-2.87,4.29,13.1,13.1,0,0,0-.53,6.8,11.47,11.47,0,0,0,.57,2.17A2.62,2.62,0,0,0,26.41,21a2.42,2.42,0,0,0,.76.12,2.86,2.86,0,0,0,1.5-.46A6.61,6.61,0,0,0,30,19.48a9.31,9.31,0,0,0,1.56-2.72,12.78,12.78,0,0,0,.19-9.32c-.06-.16-.12-.32-.19-.47a7.39,7.39,0,0,1,1.69-.61l.91-.18a2.43,2.43,0,0,1,2.15,1,4.41,4.41,0,0,1,.79,1.63c.22.91.42,1.82.61,2.74.1.42.19.84.28,1.27.15.66.29,1.32.45,2a1.49,1.49,0,0,0,.41.72l.07.09.15.07h0a.87.87,0,0,0,.22.05,9,9,0,0,0,1.27,0l.34-.27a2.31,2.31,0,0,0,.18-.23,1.37,1.37,0,0,0,.24-.58c.09-.32.17-.65.26-1,.22-.8.44-1.63.68-2.42a5.52,5.52,0,0,1,.9-1.76A1.32,1.32,0,0,1,44.78,9a6,6,0,0,1,1.35.77c.5.37,1,.77,1.47,1.2l.76.65a7.54,7.54,0,0,0,6.06,1.79,16.58,16.58,0,0,0,4.19-1.24,10,10,0,0,1,4.8-1l1.94-.07.84,0,.62,0,1.49.1a29.9,29.9,0,0,1,4.51.78c2.66.61,5.41,1.24,8.07,2.1.2.06.4.14.59.21l.63.24a1.55,1.55,0,0,0,1,0l.22,0,.1-.06.2-.2a1.56,1.56,0,0,0,.16-.28l.18-.44a1.35,1.35,0,0,1,0-.29ZM28.06,17.13a3.06,3.06,0,0,1-.66.82,9.78,9.78,0,0,1-.4-2,9.85,9.85,0,0,1,.81-5.29,7.31,7.31,0,0,1,1.27-1.91,7.85,7.85,0,0,1,.34,1.35h0A10.06,10.06,0,0,1,28.06,17.13Z"/></g></g></svg>