<svg xmlns="http://www.w3.org/2000/svg" viewBox="0 0 97.77 21.07"><defs><style>.cls-1,.cls-2{fill:#460126;}.cls-2{font-size:3.67px;font-family:FragmentCoreRom, Fragment Core;}.cls-3{letter-spacing:-0.03em;}.cls-4{letter-spacing:-0.04em;}.cls-5{letter-spacing:-0.02em;}.cls-6{letter-spacing:-0.01em;}</style></defs><g id="Layer_2" data-name="Layer 2"><g id="Layer_1-2" data-name="Layer 1"><path class="cls-1" d="M72.44,10.94a.67.67,0,0,0-.34-.32,1.92,1.92,0,0,0-1.45,0,3.69,3.69,0,0,0-1.39.94,8.48,8.48,0,0,0-1.43,2.26l-.1.21-.07,0c.1-.6.2-1.2.29-1.8s.18-1,.26-1.57a.38.38,0,0,0-.3-.43.42.42,0,0,0-.49.19.86.86,0,0,1-.29.21,3,3,0,0,1-.39.13l-.14,0a7.41,7.41,0,0,1-2.24.38.76.76,0,0,1-.54-.19c-.21-.21-.43-.41-.65-.6a.46.46,0,0,0-.46-.14.32.32,0,0,1-.26-.12A.43.43,0,0,0,62,9.87a3.1,3.1,0,0,0-.52.15,2.9,2.9,0,0,0-1.13,1,10.61,10.61,0,0,1-1.52,1.69,6,6,0,0,1-1.57,1.17c-.47.22-.79.1-.93-.4a8.36,8.36,0,0,1-.24-1.23c-.06-.45-.08-.92-.13-1.38a.69.69,0,0,0-1.16-.38,6.89,6.89,0,0,0-.83,1c-.43.64-.8,1.31-1.2,2-.08.13-.18.24-.27.36h-.09a5.52,5.52,0,0,1-.16-.54c0-.39,0-.79-.1-1.18A4.84,4.84,0,0,0,52,11a.76.76,0,0,0-1.11-.52,1.74,1.74,0,0,0-.62.45,10.37,10.37,0,0,0-.83,1.14c-.41.62-.8,1.26-1.21,1.88a2,2,0,0,1-.23.28,2.67,2.67,0,0,1,0-.7c.13-.78.28-1.54.4-2.32a2.57,2.57,0,0,0,0-.83c-.07-.34-.36-.41-.63-.2a1,1,0,0,0-.39.79.57.57,0,0,1-.12.37q-.75.76-1.53,1.5a8,8,0,0,1-2.11,1.54,2.67,2.67,0,0,1-1.67.25.92.92,0,0,1-.77-.86.39.39,0,0,1,.11-.29c.2-.18.43-.32.62-.51.53-.5,1.08-1,1.57-1.55a1.76,1.76,0,0,0,.44-1.57,1,1,0,0,0-1.42-.79,3.18,3.18,0,0,0-.81.54A5.12,5.12,0,0,0,40.25,14,1.78,1.78,0,0,0,42,15.65a3,3,0,0,0,1.65-.36,9.69,9.69,0,0,0,2.65-2.07c.34-.37.66-.76,1-1.17,0,.25,0,.48-.07.7-.06.66-.13,1.32-.16,2a1.64,1.64,0,0,0,.15.68.54.54,0,0,0,.95.09l.2-.3c.57-.92,1.13-1.84,1.72-2.75a4.28,4.28,0,0,1,.66-.75c.2-.21.35-.17.43.11a8.26,8.26,0,0,1,.18,1.09c.07.61.08,1.22.18,1.82a.54.54,0,0,0,1,.27,4.1,4.1,0,0,0,.45-.58c.44-.71.87-1.43,1.32-2.13a4.18,4.18,0,0,1,.53-.65c.17-.17.26-.15.31.08s.09.48.13.72a15.31,15.31,0,0,0,.33,1.77,1,1,0,0,0,1.44.67,4.91,4.91,0,0,0,1.49-1c.2-.17.4-.36.63-.57a1.06,1.06,0,0,0,0,.2,2.59,2.59,0,0,0,.29,1.7.87.87,0,0,0,.81.45A3.61,3.61,0,0,0,62.4,15a2.74,2.74,0,0,0,1.22-2.85c0-.09,0-.18-.06-.31a2.26,2.26,0,0,0,1.31.22,4.5,4.5,0,0,0,1.87-.44v-.05l.41-.25s0,.07,0,.09L66.85,14a5.3,5.3,0,0,0,0,1.82c.07.28.21.4.4.39.38,0,.64-.18.7-.45a8,8,0,0,1,1.39-3.07A3,3,0,0,1,72,11.4C72.37,11.42,72.53,11.26,72.44,10.94Zm-30.17-.76c.15-.16.36-.32.59-.18a.48.48,0,0,1,.17.61,2.19,2.19,0,0,1-.35.7c-.47.52-1,1-1.46,1.5l-.09-.06A4.57,4.57,0,0,1,42.27,10.18ZM63,11.75A4.08,4.08,0,0,1,62.21,14a2,2,0,0,1-1.4.81.65.65,0,0,1-.75-.66,4.69,4.69,0,0,1,1-2.77,1.37,1.37,0,0,1,.29-.25.9.9,0,0,1,1.31,0A.54.54,0,0,1,63,11.75Z"/><path class="cls-1" d="M42.4,5.51a6.17,6.17,0,0,1,1.35.76c.64.48,1.24,1,1.86,1.55a5.14,5.14,0,0,0,4.13,1.23,12.5,12.5,0,0,0,3.16-.94,41.76,41.76,0,0,1,6-2,30.22,30.22,0,0,1,5.53-.89c.78,0,1.56-.06,2.35-.09.6,0,1.2.07,1.79.12a26.12,26.12,0,0,1,3.84.66c2.25.52,4.49,1,6.69,1.74.34.11.66.26,1,.37.07,0,.16,0,.23,0s-.06-.15-.12-.19a.6.6,0,0,0-.23-.1c-1.1-.34-2.19-.73-3.31-1A51.41,51.41,0,0,0,68.49,5c-.58,0-1.17,0-1.75-.07V4.85l-.23,0a28.14,28.14,0,0,0-4.1.27,36.68,36.68,0,0,0-8.5,2.27,25.09,25.09,0,0,1-3.37,1.22,5.13,5.13,0,0,1-3.73-.33A9.27,9.27,0,0,1,45,6.93a9,9,0,0,0-2.28-1.59,2.5,2.5,0,0,0-1.86-.14,2.87,2.87,0,0,0-1.6,1.42A14,14,0,0,0,38,10.18a1.87,1.87,0,0,1-.07.18c-.23-1.07-.45-2.08-.66-3.09a8.83,8.83,0,0,0-.74-2.37,3.42,3.42,0,0,0-3.52-2c-.27,0-.54.06-.81.1v.09c-.45.15-.91.28-1.35.46s-.81.4-1.21.61l-.05,0A10.9,10.9,0,0,0,26.71,1,4.94,4.94,0,0,0,24.53.1a10,10,0,0,0-3.78.21,31.29,31.29,0,0,0-5.67,1.92c-2.16.93-4.31,1.89-6.46,2.83A16.43,16.43,0,0,1,5.36,6.15a4.25,4.25,0,0,1-2.83-.3,4.22,4.22,0,0,1-2-2.47C.42,3,.36,2.66.26,2.31c0-.08-.1-.13-.15-.2,0,.08-.07.16-.11.23a.09.09,0,0,0,0,.05A6,6,0,0,0,.85,4.62,3.88,3.88,0,0,0,4,6.51,6.74,6.74,0,0,0,7,6c1.79-.72,3.57-1.48,5.34-2.25a64.84,64.84,0,0,1,6.6-2.64,13.93,13.93,0,0,1,4.91-.8A4.59,4.59,0,0,1,26.23,1a11,11,0,0,1,2.6,2.41c.21.28.39.57.6.86l-.16.12A7.44,7.44,0,0,0,26.65,8a9.6,9.6,0,0,0-.39,5,8.35,8.35,0,0,0,.42,1.58,1,1,0,0,0,1.59.53,4,4,0,0,0,.81-.73,6.29,6.29,0,0,0,1.09-1.92,9.29,9.29,0,0,0,.15-6.86c-.14-.4-.34-.79-.52-1.19a4.48,4.48,0,0,1,.47-.28,7.69,7.69,0,0,1,2.07-.81V3.23l.37,0a3.17,3.17,0,0,1,3.17,1.18,4.72,4.72,0,0,1,.84,1.73c.26,1.1.49,2.2.73,3.3l.36,1.6a.55.55,0,0,0,.14.17c0-.06.11-.12.15-.18a.32.32,0,0,0,0-.09c.26-1,.5-1.93.79-2.88a5.44,5.44,0,0,1,.92-1.77A2.12,2.12,0,0,1,42.4,5.51ZM30.5,7.21a9.34,9.34,0,0,1-1.25,6.47,3.08,3.08,0,0,1-1.13,1.19.76.76,0,0,1-1.21-.43,8.53,8.53,0,0,1-.49-2.17,9.19,9.19,0,0,1,.76-4.88A7.09,7.09,0,0,1,29.35,4.7l.21-.14A8.09,8.09,0,0,1,30.5,7.21Z"/><path class="cls-1" d="M97.77,12.69c0-.18-.12-.2-.25-.1a3.57,3.57,0,0,0-.28.27,5.53,5.53,0,0,1-2.07,1.47,2.39,2.39,0,0,1-1.47.16,1,1,0,0,1-.73-.9c-.07-.38.27-.4.46-.55s.3-.2.44-.3a6.26,6.26,0,0,0,1.68-1.52,2.65,2.65,0,0,0,.39-.79,1,1,0,0,0-1.11-1.31,2.09,2.09,0,0,0-1.14.42,4.16,4.16,0,0,0-1.68,3,1.29,1.29,0,0,1-.6,1.07,8.38,8.38,0,0,1-1.7,1c-.86.3-1.35,0-1.41-.91a12.16,12.16,0,0,1,.35-3.89c.18-.69.41-1.37.58-2.06a5.7,5.7,0,0,0,.13-1A.29.29,0,0,0,89,6.42a.7.7,0,0,0-.41.18,2.09,2.09,0,0,0-.54,1.09c-.21,1.08-.4,2.17-.61,3.25a1.56,1.56,0,0,1-.2.52,10.36,10.36,0,0,1-2.63,2.61.42.42,0,0,1-.12.06,3.1,3.1,0,0,0,.16-.3,4.11,4.11,0,0,0,.56-1.9,1.12,1.12,0,0,0-1.78-1A4.81,4.81,0,0,0,82.1,12c-.45.52-.87,1.07-1.31,1.62.22-.84.43-1.68.68-2.52s.59-1.79.85-2.69a3.84,3.84,0,0,0,.1-1A.43.43,0,0,0,82.19,7a.88.88,0,0,0-.48.12.58.58,0,0,0-.17.23,2.66,2.66,0,0,0-.23.52c-.22.8-.43,1.6-.64,2.4a4.14,4.14,0,0,1-.25.95,11.83,11.83,0,0,1-1,1.5A5.91,5.91,0,0,1,78,14.25a.59.59,0,0,1-1-.35.67.67,0,0,1,0-.19,4.76,4.76,0,0,1,.12-2.37.61.61,0,0,0,0-.57,1.48,1.48,0,0,1-.2-.42c-.12-.46-.3-.61-.76-.57a3.11,3.11,0,0,0-2.34,1.34,7.51,7.51,0,0,0-1.31,3.44,1.11,1.11,0,0,0,1,1.3,1.63,1.63,0,0,0,1.1-.39A6.27,6.27,0,0,0,76,13.92l.18-.22c.08.3.13.55.2.8a1,1,0,0,0,1.51.69A4.63,4.63,0,0,0,79.34,14c.28-.32.53-.66.81-1,0,.08,0,.13,0,.17-.09.61-.19,1.22-.25,1.83,0,.44,0,.46.39.64a.75.75,0,0,0,0,.26.92.92,0,0,0,.09.38.85.85,0,0,0,.85.43,3.64,3.64,0,0,0,1-.26,16.39,16.39,0,0,0,1.48-.82,16.25,16.25,0,0,0,2.74-1.92c.3-.29.58-.6.88-.91V13a3.74,3.74,0,0,0,.35,2,1.24,1.24,0,0,0,1.38.65,3.4,3.4,0,0,0,.82-.26A9.78,9.78,0,0,0,91.87,14l.15-.1c0,.08,0,.13,0,.18a1.72,1.72,0,0,0,1.82,1.41,4.79,4.79,0,0,0,3.8-2.29A1,1,0,0,0,97.77,12.69ZM75.21,13.84a7.67,7.67,0,0,1-.95.94.55.55,0,0,1-.54.09c-.24-.08-.37-.22-.33-.47a7.37,7.37,0,0,1,.26-1.15,6.77,6.77,0,0,1,1-2,1.56,1.56,0,0,1,.82-.58c.42-.12.74.13.73.7A4.93,4.93,0,0,1,75.21,13.84Zm8.84-.42a10.15,10.15,0,0,1-.76,1.27,2.75,2.75,0,0,1-1.82,1.07.6.6,0,0,1-.57-.13.48.48,0,0,1-.13-.59,7.73,7.73,0,0,1,2.15-2.93,2.75,2.75,0,0,1,.72-.43c.38-.17.57-.06.69.35a2.84,2.84,0,0,1,.06.31l0,0A9.53,9.53,0,0,1,84.05,13.42Zm9.69-2.9a1.28,1.28,0,0,1,.79-.51c.31,0,.49.1.44.42a.93.93,0,0,1-.15.42A7.93,7.93,0,0,1,93,12.49,3.55,3.55,0,0,1,93.74,10.52Z"/><text class="cls-2" transform="translate(49.31 19.97)">Botellas de vi<tspan class="cls-3" x="19.02" y="0">n</tspan><tspan x="20.97" y="0">o pers</tspan><tspan class="cls-4" x="29.77" y="0">o</tspan><tspan class="cls-5" x="31.34" y="0">n</tspan><tspan x="33.33" y="0">ali</tspan><tspan class="cls-6" x="36.59" y="0">z</tspan><tspan x="38.19" y="0">adas</tspan></text></g></g></svg>